<?xml version="1.0" encoding="UTF-8" standalone="no"?>
<!-- Created with Inkscape (http://www.inkscape.org/) -->

<svg
   xmlns:dc="http://purl.org/dc/elements/1.1/"
   xmlns:cc="http://creativecommons.org/ns#"
   xmlns:rdf="http://www.w3.org/1999/02/22-rdf-syntax-ns#"
   xmlns:svg="http://www.w3.org/2000/svg"
   xmlns="http://www.w3.org/2000/svg"
   xmlns:xlink="http://www.w3.org/1999/xlink"
   xmlns:sodipodi="http://sodipodi.sourceforge.net/DTD/sodipodi-0.dtd"
   xmlns:inkscape="http://www.inkscape.org/namespaces/inkscape"
   width="9.5in"
   height="4.125in"
   viewBox="0 0 241.3 104.775"
   version="1.1"
   id="svg8"
   inkscape:version="0.92.4 (5da689c313, 2019-01-14)"
   sodipodi:docname="note-fig_01.svg">
  <defs
     id="defs2" />
  <sodipodi:namedview
     id="base"
     pagecolor="#ffffff"
     bordercolor="#666666"
     borderopacity="1.0"
     inkscape:pageopacity="0.0"
     inkscape:pageshadow="2"
     inkscape:zoom="2.0964912"
     inkscape:cx="345.8159"
     inkscape:cy="198"
     inkscape:document-units="mm"
     inkscape:current-layer="layer1"
     showgrid="true"
     inkscape:snap-midpoints="true"
     inkscape:window-width="2558"
     inkscape:window-height="1438"
     inkscape:window-x="0"
     inkscape:window-y="0"
     inkscape:window-maximized="0"
     inkscape:snap-center="true"
     inkscape:snap-object-midpoints="true"
     inkscape:object-nodes="false"
     inkscape:snap-others="true"
     units="in" />
  <metadata
     id="metadata5">
    <rdf:RDF>
      <cc:Work
         rdf:about="">
        <dc:format>image/svg+xml</dc:format>
        <dc:type
           rdf:resource="http://purl.org/dc/dcmitype/StillImage" />
        <dc:title />
      </cc:Work>
    </rdf:RDF>
  </metadata>
  <g
     inkscape:label="レイヤー 1"
     inkscape:groupmode="layer"
     id="layer1"
     transform="translate(0,-192.225)">
    <rect
       style="fill:#f9f9f9;fill-opacity:1;stroke:#c5c5c5;stroke-width:0.19833885;stroke-miterlimit:4;stroke-dasharray:none;stroke-opacity:1"
       id="rect815"
       width="9.9169426"
       height="39.66777"
       x="10.395403"
       y="244.41774"
       rx="0.99169225"
       ry="0.99169225"
       inkscape:tile-cx="7.55"
       inkscape:tile-cy="26.95"
       inkscape:tile-w="5.0999999"
       inkscape:tile-h="20.1"
       inkscape:tile-x0="5.0000001"
       inkscape:tile-y0="16.9" />
    <use
       x="0"
       y="0"
       inkscape:tiled-clone-of="#rect815"
       xlink:href="#rect815"
       transform="translate(9.9169421,-9.0308488e-6)"
       id="use821"
       width="100%"
       height="100%" />
    <use
       x="0"
       y="0"
       inkscape:tiled-clone-of="#rect815"
       xlink:href="#rect815"
       transform="translate(20.234531,-9.0308488e-6)"
       id="use823"
       width="100%"
       height="100%" />
    <use
       x="0"
       y="0"
       inkscape:tiled-clone-of="#rect815"
       xlink:href="#rect815"
       transform="translate(30.552118,-9.0308488e-6)"
       id="use825"
       width="100%"
       height="100%" />
    <use
       x="0"
       y="0"
       inkscape:tiled-clone-of="#rect815"
       xlink:href="#rect815"
       transform="translate(40.869704,-9.0308488e-6)"
       id="use827"
       width="100%"
       height="100%" />
    <use
       x="0"
       y="0"
       inkscape:tiled-clone-of="#rect815"
       xlink:href="#rect815"
       transform="translate(51.187289,-9.0308488e-6)"
       id="use829"
       width="100%"
       height="100%" />
    <use
       x="0"
       y="0"
       inkscape:tiled-clone-of="#rect815"
       xlink:href="#rect815"
       transform="translate(61.504876,-9.0308488e-6)"
       id="use831"
       width="100%"
       height="100%" />
    <path
       style="fill:#808080;fill-opacity:1;stroke:#e7e7e7;stroke-width:0.21885212;stroke-miterlimit:4;stroke-dasharray:none;stroke-opacity:1"
       d="m 17.084217,244.428 h 5.719846 c 0.552576,0 0.997431,0.53542 0.997431,1.20049 v 19.19745 c 0,0.66507 -0.444855,1.20049 -0.997431,1.20049 h -5.719846 c -0.552576,0 -0.997426,-0.53542 -0.997426,-1.20049 v -19.19745 c 0,-0.66507 0.44485,-1.20049 0.997426,-1.20049 z"
       id="rect833"
       inkscape:connector-curvature="0" />
    <path
       inkscape:connector-curvature="0"
       id="path838"
       d="m 27.770014,244.41775 h 5.719844 c 0.552576,0 0.99743,0.53541 0.99743,1.20048 v 19.19746 c 0,0.66507 -0.444854,1.20049 -0.99743,1.20049 h -5.719844 c -0.552576,0 -0.997428,-0.53542 -0.997428,-1.20049 v -19.19746 c 0,-0.66507 0.444852,-1.20048 0.997428,-1.20048 z"
       style="fill:#808080;fill-opacity:1;stroke:#e7e7e7;stroke-width:0.21885212;stroke-miterlimit:4;stroke-dasharray:none;stroke-opacity:1" />
    <path
       style="fill:#808080;fill-opacity:1;stroke:#e7e7e7;stroke-width:0.21885212;stroke-miterlimit:4;stroke-dasharray:none;stroke-opacity:1"
       d="m 48.405187,244.41775 h 5.719845 c 0.552576,0 0.99743,0.53541 0.99743,1.20048 v 19.19746 c 0,0.66507 -0.444854,1.20049 -0.99743,1.20049 h -5.719845 c -0.552576,0 -0.997428,-0.53542 -0.997428,-1.20049 v -19.19746 c 0,-0.66507 0.444852,-1.20048 0.997428,-1.20048 z"
       id="path840"
       inkscape:connector-curvature="0" />
    <path
       inkscape:connector-curvature="0"
       id="path842"
       d="m 58.722772,244.41775 h 5.719844 c 0.552576,0 0.997431,0.53541 0.997431,1.20048 v 19.19746 c 0,0.66507 -0.444855,1.20049 -0.997431,1.20049 h -5.719844 c -0.552576,0 -0.997428,-0.53542 -0.997428,-1.20049 v -19.19746 c 0,-0.66507 0.444852,-1.20048 0.997428,-1.20048 z"
       style="fill:#808080;fill-opacity:1;stroke:#e7e7e7;stroke-width:0.21885212;stroke-miterlimit:4;stroke-dasharray:none;stroke-opacity:1" />
    <path
       style="fill:#808080;fill-opacity:1;stroke:#e7e7e7;stroke-width:0.21885212;stroke-miterlimit:4;stroke-dasharray:none;stroke-opacity:1"
       d="m 69.040359,244.41775 h 5.719844 c 0.552576,0 0.99743,0.53541 0.99743,1.20048 v 19.19746 c 0,0.66507 -0.444854,1.20049 -0.99743,1.20049 h -5.719844 c -0.552576,0 -0.997428,-0.53542 -0.997428,-1.20049 v -19.19746 c 0,-0.66507 0.444852,-1.20048 0.997428,-1.20048 z"
       id="path844"
       inkscape:connector-curvature="0" />
    <rect
       inkscape:tile-y0="16.9"
       inkscape:tile-x0="5.0000001"
       inkscape:tile-h="20.1"
       inkscape:tile-w="5.0999999"
       inkscape:tile-cy="26.95"
       inkscape:tile-cx="7.55"
       ry="0.99169225"
       rx="0.99169225"
       y="244.41777"
       x="81.81723"
       height="39.66777"
       width="9.9169426"
       id="rect865"
       style="fill:#f9f9f9;fill-opacity:1;stroke:#e7e7e7;stroke-width:0.19833885;stroke-miterlimit:4;stroke-dasharray:none;stroke-opacity:1" />
    <use
       id="use867"
       xlink:href="#rect815"
       inkscape:tiled-clone-of="#rect815"
       y="0"
       x="0"
       transform="translate(71.421818,-9.0308488e-6)"
       width="100%"
       height="100%" />
    <use
       id="use869"
       transform="translate(81.739405,-9.0308488e-6)"
       xlink:href="#rect815"
       inkscape:tiled-clone-of="#rect815"
       y="0"
       x="0"
       width="100%"
       height="100%" />
    <use
       id="use871"
       transform="translate(92.056992,-9.0308488e-6)"
       xlink:href="#rect815"
       inkscape:tiled-clone-of="#rect815"
       y="0"
       x="0"
       width="100%"
       height="100%" />
    <use
       id="use873"
       transform="translate(102.37458,-9.0308488e-6)"
       xlink:href="#rect815"
       inkscape:tiled-clone-of="#rect815"
       y="0"
       x="0"
       width="100%"
       height="100%" />
    <use
       id="use875"
       transform="translate(112.69217,-9.0308488e-6)"
       xlink:href="#rect815"
       inkscape:tiled-clone-of="#rect815"
       y="0"
       x="0"
       width="100%"
       height="100%"
       style="fill:#0000ff;fill-opacity:1" />
    <use
       id="use877"
       transform="translate(123.00975,-9.0308488e-6)"
       xlink:href="#rect815"
       inkscape:tiled-clone-of="#rect815"
       y="0"
       x="0"
       width="100%"
       height="100%" />
    <use
       id="use879"
       transform="translate(133.32734,-9.0308488e-6)"
       xlink:href="#rect815"
       inkscape:tiled-clone-of="#rect815"
       y="0"
       x="0"
       width="100%"
       height="100%"
       style="fill:#0000ff" />
    <path
       inkscape:connector-curvature="0"
       id="path881"
       d="m 88.90668,244.428 h 5.719844 c 0.552576,0 0.99743,0.53542 0.99743,1.20049 v 19.19745 c 0,0.66507 -0.444854,1.20049 -0.99743,1.20049 H 88.90668 c -0.552576,0 -0.997429,-0.53542 -0.997429,-1.20049 v -19.19745 c 0,-0.66507 0.444853,-1.20049 0.997429,-1.20049 z"
       style="fill:#808080;fill-opacity:1;stroke:#e7e7e7;stroke-width:0.21885212;stroke-miterlimit:4;stroke-dasharray:none;stroke-opacity:1" />
    <path
       style="fill:#808080;fill-opacity:1;stroke:#e7e7e7;stroke-width:0.21885212;stroke-miterlimit:4;stroke-dasharray:none;stroke-opacity:1"
       d="m 99.592474,244.41775 h 5.719846 c 0.55257,0 0.99743,0.53541 0.99743,1.20048 v 19.19746 c 0,0.66507 -0.44486,1.20049 -0.99743,1.20049 h -5.719846 c -0.552576,0 -0.997428,-0.53542 -0.997428,-1.20049 v -19.19746 c 0,-0.66507 0.444852,-1.20048 0.997428,-1.20048 z"
       id="path883"
       inkscape:connector-curvature="0" />
    <rect
       ry="1.023423"
       rx="0.38976178"
       y="244.41777"
       x="123.08758"
       height="39.667759"
       width="9.9169464"
       id="rect1023"
       style="fill:#5599ff;fill-opacity:1;stroke:#5599ff;stroke-width:0.12631592;stroke-miterlimit:4;stroke-dasharray:none;stroke-opacity:1" />
    <path
       inkscape:connector-curvature="0"
       id="path885"
       d="m 120.22765,244.41775 h 5.71984 c 0.55258,0 0.99743,0.53541 0.99743,1.20048 v 19.19746 c 0,0.66507 -0.44485,1.20049 -0.99743,1.20049 h -5.71984 c -0.55258,0 -0.99743,-0.53542 -0.99743,-1.20049 v -19.19746 c 0,-0.66507 0.44485,-1.20048 0.99743,-1.20048 z"
       style="fill:#808080;fill-opacity:1;stroke:#e7e7e7;stroke-width:0.21885212;stroke-miterlimit:4;stroke-dasharray:none;stroke-opacity:1" />
    <path
       style="fill:#808080;fill-opacity:1;stroke:#e7e7e7;stroke-width:0.21885212;stroke-miterlimit:4;stroke-dasharray:none;stroke-opacity:1"
       d="m 130.54523,244.41775 h 5.71985 c 0.55257,0 0.99743,0.53541 0.99743,1.20048 v 19.19746 c 0,0.66507 -0.44486,1.20049 -0.99743,1.20049 h -5.71985 c -0.55257,0 -0.99743,-0.53542 -0.99743,-1.20049 v -19.19746 c 0,-0.66507 0.44486,-1.20048 0.99743,-1.20048 z"
       id="path887"
       inkscape:connector-curvature="0" />
    <rect
       style="fill:#5599ff;fill-opacity:1;stroke:#c8c8c8;stroke-width:0.12631592;stroke-miterlimit:4;stroke-dasharray:none;stroke-opacity:1"
       id="rect1025"
       width="9.9169464"
       height="39.667759"
       x="143.72275"
       y="244.41777"
       rx="0.38976178"
       ry="1.023423" />
    <path
       inkscape:connector-curvature="0"
       id="path889"
       d="m 140.86282,244.41775 h 5.71984 c 0.55258,0 0.99743,0.53541 0.99743,1.20048 v 19.19746 c 0,0.66507 -0.44485,1.20049 -0.99743,1.20049 h -5.71984 c -0.55258,0 -0.99743,-0.53542 -0.99743,-1.20049 v -19.19746 c 0,-0.66507 0.44485,-1.20048 0.99743,-1.20048 z"
       style="fill:#808080;fill-opacity:1;stroke:#e7e7e7;stroke-width:0.21885212;stroke-miterlimit:4;stroke-dasharray:none;stroke-opacity:1" />
    <rect
       style="fill:#f9f9f9;fill-opacity:1;stroke:#e7e7e7;stroke-width:0.19833885;stroke-miterlimit:4;stroke-dasharray:none;stroke-opacity:1"
       id="rect891"
       width="9.9169426"
       height="39.66777"
       x="153.63969"
       y="244.41777"
       rx="0.99169225"
       ry="0.99169225"
       inkscape:tile-cx="7.55"
       inkscape:tile-cy="26.95"
       inkscape:tile-w="5.0999999"
       inkscape:tile-h="20.1"
       inkscape:tile-x0="5.0000001"
       inkscape:tile-y0="16.9" />
    <use
       height="100%"
       width="100%"
       transform="translate(143.24428,-9.0308488e-6)"
       x="0"
       y="0"
       inkscape:tiled-clone-of="#rect815"
       xlink:href="#rect815"
       id="use893" />
    <use
       height="100%"
       width="100%"
       x="0"
       y="0"
       inkscape:tiled-clone-of="#rect815"
       xlink:href="#rect815"
       transform="translate(153.56187,-9.0308488e-6)"
       id="use895"
       style="fill:#0000ff" />
    <use
       height="100%"
       width="100%"
       x="0"
       y="0"
       inkscape:tiled-clone-of="#rect815"
       xlink:href="#rect815"
       transform="translate(163.87945,-9.0308488e-6)"
       id="use897" />
    <use
       height="100%"
       width="100%"
       x="0"
       y="0"
       inkscape:tiled-clone-of="#rect815"
       xlink:href="#rect815"
       transform="translate(174.19704,-9.0308488e-6)"
       id="use899" />
    <use
       height="100%"
       width="100%"
       x="0"
       y="0"
       inkscape:tiled-clone-of="#rect815"
       xlink:href="#rect815"
       transform="translate(184.51463,-9.0308488e-6)"
       id="use901" />
    <use
       height="100%"
       width="100%"
       x="0"
       y="0"
       inkscape:tiled-clone-of="#rect815"
       xlink:href="#rect815"
       transform="translate(194.83223,-9.0308488e-6)"
       id="use903" />
    <use
       height="100%"
       width="100%"
       x="0"
       y="0"
       inkscape:tiled-clone-of="#rect815"
       xlink:href="#rect815"
       transform="translate(205.14982,-9.0308488e-6)"
       id="use905" />
    <rect
       ry="1.023423"
       rx="0.38976178"
       y="244.41777"
       x="164.35793"
       height="39.667759"
       width="9.9169464"
       id="rect1027"
       style="fill:#5599ff;fill-opacity:1;stroke:#c8c8c8;stroke-width:0.12631592;stroke-miterlimit:4;stroke-dasharray:none;stroke-opacity:1" />
    <path
       style="fill:#808080;fill-opacity:1;stroke:#e7e7e7;stroke-width:0.21885212;stroke-miterlimit:4;stroke-dasharray:none;stroke-opacity:1"
       d="m 160.72914,244.428 h 5.71985 c 0.55257,0 0.99743,0.53542 0.99743,1.20049 v 19.19745 c 0,0.66507 -0.44486,1.20049 -0.99743,1.20049 h -5.71985 c -0.55257,0 -0.99743,-0.53542 -0.99743,-1.20049 v -19.19745 c 0,-0.66507 0.44486,-1.20049 0.99743,-1.20049 z"
       id="path907"
       inkscape:connector-curvature="0" />
    <path
       inkscape:connector-curvature="0"
       id="path909"
       d="m 171.41494,244.41775 h 5.71984 c 0.55257,0 0.99742,0.53541 0.99742,1.20048 v 19.19746 c 0,0.66507 -0.44485,1.20049 -0.99742,1.20049 h -5.71984 c -0.55257,0 -0.99743,-0.53542 -0.99743,-1.20049 v -19.19746 c 0,-0.66507 0.44486,-1.20048 0.99743,-1.20048 z"
       style="fill:#808080;fill-opacity:1;stroke:#e7e7e7;stroke-width:0.21885212;stroke-miterlimit:4;stroke-dasharray:none;stroke-opacity:1" />
    <path
       style="fill:#808080;fill-opacity:1;stroke:#e7e7e7;stroke-width:0.21885212;stroke-miterlimit:4;stroke-dasharray:none;stroke-opacity:1"
       d="m 192.05012,244.41775 h 5.71983 c 0.55257,0 0.99743,0.53541 0.99743,1.20048 v 19.19746 c 0,0.66507 -0.44486,1.20049 -0.99743,1.20049 h -5.71983 c -0.5526,0 -0.99745,-0.53542 -0.99745,-1.20049 v -19.19746 c 0,-0.66507 0.44485,-1.20048 0.99745,-1.20048 z"
       id="path911"
       inkscape:connector-curvature="0" />
    <path
       inkscape:connector-curvature="0"
       id="path913"
       d="m 202.36768,244.41775 h 5.71986 c 0.55257,0 0.99742,0.53541 0.99742,1.20048 v 19.19746 c 0,0.66507 -0.44485,1.20049 -0.99742,1.20049 h -5.71986 c -0.55257,0 -0.99742,-0.53542 -0.99742,-1.20049 v -19.19746 c 0,-0.66507 0.44485,-1.20048 0.99742,-1.20048 z"
       style="fill:#808080;fill-opacity:1;stroke:#e7e7e7;stroke-width:0.21885212;stroke-miterlimit:4;stroke-dasharray:none;stroke-opacity:1" />
    <path
       style="fill:#808080;fill-opacity:1;stroke:#e7e7e7;stroke-width:0.21885212;stroke-miterlimit:4;stroke-dasharray:none;stroke-opacity:1"
       d="m 212.68527,244.41775 h 5.71985 c 0.55258,0 0.99743,0.53541 0.99743,1.20048 v 19.19746 c 0,0.66507 -0.44485,1.20049 -0.99743,1.20049 h -5.71985 c -0.55257,0 -0.99743,-0.53542 -0.99743,-1.20049 v -19.19746 c 0,-0.66507 0.44486,-1.20048 0.99743,-1.20048 z"
       id="path915"
       inkscape:connector-curvature="0" />
    <path
       sodipodi:type="star"
       style="fill:#808080;fill-opacity:1;stroke:#e7e7e7;stroke-width:0.19833885;stroke-miterlimit:4;stroke-dasharray:none;stroke-opacity:1"
       id="path997"
       sodipodi:sides="3"
       sodipodi:cx="41.385567"
       sodipodi:cy="42.093014"
       sodipodi:r1="4.5999079"
       sodipodi:r2="2.2999537"
       sodipodi:arg1="0"
       sodipodi:arg2="1.0471976"
       inkscape:flatsided="true"
       inkscape:rounded="0.003"
       inkscape:randomized="0.0119475"
       d="m 46.029578,42.100221 c 2.48e-4,0.02377 -6.904116,4.033214 -6.924672,4.021114 -0.02056,-0.0121 -0.02165,-8.020954 -8.4e-4,-8.032595 0.02081,-0.01164 6.925265,3.987709 6.925512,4.011481 z"
       inkscape:transform-center-x="-1.0789474"
       inkscape:transform-center-y="0.0037710767"
       transform="translate(58.342911,165.09286)" />
    <rect
       style="fill:#808080;fill-opacity:1;stroke:#e7e7e7;stroke-width:0.19833885;stroke-miterlimit:4;stroke-dasharray:none;stroke-opacity:1"
       id="rect999"
       width="7.5460863"
       height="4.4804888"
       x="89.824242"
       y="204.94763"
       rx="0.99169225"
       ry="0.99169225" />
    <path
       transform="rotate(180,52.906689,124.64769)"
       inkscape:transform-center-y="-0.0037700054"
       inkscape:transform-center-x="7.4459584"
       d="m 46.029578,42.100221 c 2.48e-4,0.02377 -6.904116,4.033214 -6.924672,4.021114 -0.02056,-0.0121 -0.02165,-8.020954 -8.4e-4,-8.032595 0.02081,-0.01164 6.925265,3.987709 6.925512,4.011481 z"
       inkscape:randomized="0.0119475"
       inkscape:rounded="0.003"
       inkscape:flatsided="true"
       sodipodi:arg2="1.0471976"
       sodipodi:arg1="0"
       sodipodi:r2="2.2999537"
       sodipodi:r1="4.5999079"
       sodipodi:cy="42.093014"
       sodipodi:cx="41.385567"
       sodipodi:sides="3"
       id="path1001"
       style="fill:#808080;fill-opacity:1;stroke:#e7e7e7;stroke-width:0.19833885;stroke-miterlimit:4;stroke-dasharray:none;stroke-opacity:1"
       sodipodi:type="star" />
    <rect
       ry="0.99169225"
       rx="0.99169225"
       y="204.94763"
       x="66.714355"
       height="4.4804888"
       width="7.5460863"
       id="rect1003"
       style="fill:#808080;fill-opacity:1;stroke:#e7e7e7;stroke-width:0.19833885;stroke-miterlimit:4;stroke-dasharray:none;stroke-opacity:1" />
    <text
       xml:space="preserve"
       style="font-style:normal;font-variant:normal;font-weight:normal;font-stretch:normal;font-size:8.39634418px;line-height:1.25;font-family:sans-serif;-inkscape-font-specification:sans-serif;letter-spacing:0px;word-spacing:0px;fill:#000000;fill-opacity:1;stroke:none;stroke-width:0.52477151"
       x="91.710754"
       y="226.16898"
       id="text1007"><tspan
         sodipodi:role="line"
         id="tspan1005"
         x="91.710754"
         y="226.16898"
         style="font-size:8.39634418px;stroke-width:0.52477151">ノート指定</tspan></text>
    <text
       id="text1011"
       y="225.81528"
       x="15.77826"
       style="font-style:normal;font-variant:normal;font-weight:normal;font-stretch:normal;font-size:8.39634418px;line-height:1.25;font-family:sans-serif;-inkscape-font-specification:sans-serif;letter-spacing:0px;word-spacing:0px;fill:#000000;fill-opacity:1;stroke:none;stroke-width:0.52477151"
       xml:space="preserve"><tspan
         style="font-size:8.39634418px;stroke-width:0.52477151"
         y="225.81528"
         x="15.77826"
         id="tspan1009"
         sodipodi:role="line">ストローク指定</tspan></text>
    <rect
       inkscape:tile-y0="16.9"
       inkscape:tile-x0="5.0000001"
       inkscape:tile-h="20.1"
       inkscape:tile-w="5.0999999"
       inkscape:tile-cy="26.95"
       inkscape:tile-cx="7.55"
       ry="0.99169225"
       rx="0.99169225"
       y="244.41774"
       x="10.395403"
       height="39.66777"
       width="9.9169426"
       id="rect2226"
       style="fill:#f9f9f9;fill-opacity:1;stroke:#c5c5c5;stroke-width:0.19833885;stroke-miterlimit:4;stroke-dasharray:none;stroke-opacity:1" />
    <use
       height="100%"
       width="100%"
       id="use2228"
       transform="translate(9.9169421,-9.0308488e-6)"
       xlink:href="#rect815"
       inkscape:tiled-clone-of="#rect815"
       y="0"
       x="0" />
    <use
       height="100%"
       width="100%"
       id="use2230"
       transform="translate(20.234531,-9.0308488e-6)"
       xlink:href="#rect815"
       inkscape:tiled-clone-of="#rect815"
       y="0"
       x="0" />
    <use
       height="100%"
       width="100%"
       id="use2234"
       transform="translate(40.869704,-9.0308488e-6)"
       xlink:href="#rect815"
       inkscape:tiled-clone-of="#rect815"
       y="0"
       x="0" />
    <use
       height="100%"
       width="100%"
       id="use2236"
       transform="translate(51.187289,-9.0308488e-6)"
       xlink:href="#rect815"
       inkscape:tiled-clone-of="#rect815"
       y="0"
       x="0" />
    <use
       height="100%"
       width="100%"
       id="use2238"
       transform="translate(61.504876,-9.0308488e-6)"
       xlink:href="#rect815"
       inkscape:tiled-clone-of="#rect815"
       y="0"
       x="0" />
    <path
       inkscape:connector-curvature="0"
       id="path2240"
       d="m 17.084217,244.428 h 5.719846 c 0.552576,0 0.997431,0.53542 0.997431,1.20049 v 19.19745 c 0,0.66507 -0.444855,1.20049 -0.997431,1.20049 h -5.719846 c -0.552576,0 -0.997426,-0.53542 -0.997426,-1.20049 v -19.19745 c 0,-0.66507 0.44485,-1.20049 0.997426,-1.20049 z"
       style="fill:#808080;fill-opacity:1;stroke:#e7e7e7;stroke-width:0.21885212;stroke-miterlimit:4;stroke-dasharray:none;stroke-opacity:1" />
    <path
       style="fill:#808080;fill-opacity:1;stroke:#e7e7e7;stroke-width:0.21885212;stroke-miterlimit:4;stroke-dasharray:none;stroke-opacity:1"
       d="m 27.770014,244.41775 h 5.719844 c 0.552576,0 0.99743,0.53541 0.99743,1.20048 v 19.19746 c 0,0.66507 -0.444854,1.20049 -0.99743,1.20049 h -5.719844 c -0.552576,0 -0.997428,-0.53542 -0.997428,-1.20049 v -19.19746 c 0,-0.66507 0.444852,-1.20048 0.997428,-1.20048 z"
       id="path2242"
       inkscape:connector-curvature="0" />
    <path
       inkscape:connector-curvature="0"
       id="path2246"
       d="m 48.405187,244.41775 h 5.719845 c 0.552576,0 0.99743,0.53541 0.99743,1.20048 v 19.19746 c 0,0.66507 -0.444854,1.20049 -0.99743,1.20049 h -5.719845 c -0.552576,0 -0.997428,-0.53542 -0.997428,-1.20049 v -19.19746 c 0,-0.66507 0.444852,-1.20048 0.997428,-1.20048 z"
       style="fill:#808080;fill-opacity:1;stroke:#e7e7e7;stroke-width:0.21885212;stroke-miterlimit:4;stroke-dasharray:none;stroke-opacity:1" />
    <path
       style="fill:#808080;fill-opacity:1;stroke:#e7e7e7;stroke-width:0.21885212;stroke-miterlimit:4;stroke-dasharray:none;stroke-opacity:1"
       d="m 58.722772,244.41775 h 5.719844 c 0.552576,0 0.997431,0.53541 0.997431,1.20048 v 19.19746 c 0,0.66507 -0.444855,1.20049 -0.997431,1.20049 h -5.719844 c -0.552576,0 -0.997428,-0.53542 -0.997428,-1.20049 v -19.19746 c 0,-0.66507 0.444852,-1.20048 0.997428,-1.20048 z"
       id="path2248"
       inkscape:connector-curvature="0" />
    <path
       inkscape:connector-curvature="0"
       id="path2250"
       d="m 69.040359,244.41775 h 5.719844 c 0.552576,0 0.99743,0.53541 0.99743,1.20048 v 19.19746 c 0,0.66507 -0.444854,1.20049 -0.99743,1.20049 h -5.719844 c -0.552576,0 -0.997428,-0.53542 -0.997428,-1.20049 v -19.19746 c 0,-0.66507 0.444852,-1.20048 0.997428,-1.20048 z"
       style="fill:#808080;fill-opacity:1;stroke:#e7e7e7;stroke-width:0.21885212;stroke-miterlimit:4;stroke-dasharray:none;stroke-opacity:1" />
    <rect
       style="fill:#f9f9f9;fill-opacity:1;stroke:#e7e7e7;stroke-width:0.19833885;stroke-miterlimit:4;stroke-dasharray:none;stroke-opacity:1"
       id="rect2252"
       width="9.9169426"
       height="39.66777"
       x="81.81723"
       y="244.41777"
       rx="0.99169225"
       ry="0.99169225"
       inkscape:tile-cx="7.55"
       inkscape:tile-cy="26.95"
       inkscape:tile-w="5.0999999"
       inkscape:tile-h="20.1"
       inkscape:tile-x0="5.0000001"
       inkscape:tile-y0="16.9" />
    <use
       height="100%"
       width="100%"
       transform="translate(71.421818,-9.0308488e-6)"
       x="0"
       y="0"
       inkscape:tiled-clone-of="#rect815"
       xlink:href="#rect815"
       id="use2254" />
    <use
       height="100%"
       width="100%"
       x="0"
       y="0"
       inkscape:tiled-clone-of="#rect815"
       xlink:href="#rect815"
       transform="translate(81.739405,-9.0308488e-6)"
       id="use2256" />
    <use
       height="100%"
       width="100%"
       x="0"
       y="0"
       inkscape:tiled-clone-of="#rect815"
       xlink:href="#rect815"
       transform="translate(92.056992,-9.0308488e-6)"
       id="use2258" />
    <use
       height="100%"
       width="100%"
       x="0"
       y="0"
       inkscape:tiled-clone-of="#rect815"
       xlink:href="#rect815"
       transform="translate(102.37458,-9.0308488e-6)"
       id="use2260" />
    <use
       style="fill:#0000ff;fill-opacity:1"
       height="100%"
       width="100%"
       x="0"
       y="0"
       inkscape:tiled-clone-of="#rect815"
       xlink:href="#rect815"
       transform="translate(112.69217,-9.0308488e-6)"
       id="use2262" />
    <use
       height="100%"
       width="100%"
       x="0"
       y="0"
       inkscape:tiled-clone-of="#rect815"
       xlink:href="#rect815"
       transform="translate(123.00975,-9.0308488e-6)"
       id="use2264" />
    <use
       style="fill:#0000ff"
       height="100%"
       width="100%"
       x="0"
       y="0"
       inkscape:tiled-clone-of="#rect815"
       xlink:href="#rect815"
       transform="translate(133.32734,-9.0308488e-6)"
       id="use2266" />
    <path
       style="fill:#808080;fill-opacity:1;stroke:#e7e7e7;stroke-width:0.21885212;stroke-miterlimit:4;stroke-dasharray:none;stroke-opacity:1"
       d="m 88.90668,244.428 h 5.719844 c 0.552576,0 0.99743,0.53542 0.99743,1.20049 v 19.19745 c 0,0.66507 -0.444854,1.20049 -0.99743,1.20049 H 88.90668 c -0.552576,0 -0.997429,-0.53542 -0.997429,-1.20049 v -19.19745 c 0,-0.66507 0.444853,-1.20049 0.997429,-1.20049 z"
       id="path2268"
       inkscape:connector-curvature="0" />
    <path
       inkscape:connector-curvature="0"
       id="path2270"
       d="m 99.592474,244.41775 h 5.719846 c 0.55257,0 0.99743,0.53541 0.99743,1.20048 v 19.19746 c 0,0.66507 -0.44486,1.20049 -0.99743,1.20049 h -5.719846 c -0.552576,0 -0.997428,-0.53542 -0.997428,-1.20049 v -19.19746 c 0,-0.66507 0.444852,-1.20048 0.997428,-1.20048 z"
       style="fill:#808080;fill-opacity:1;stroke:#e7e7e7;stroke-width:0.21885212;stroke-miterlimit:4;stroke-dasharray:none;stroke-opacity:1" />
    <rect
       style="fill:#5599ff;fill-opacity:1;stroke:#5599ff;stroke-width:0.12631592;stroke-miterlimit:4;stroke-dasharray:none;stroke-opacity:1"
       id="rect2272"
       width="9.9169464"
       height="39.667759"
       x="123.08758"
       y="244.41777"
       rx="0.38976178"
       ry="1.023423" />
    <path
       style="fill:#808080;fill-opacity:1;stroke:#e7e7e7;stroke-width:0.21885212;stroke-miterlimit:4;stroke-dasharray:none;stroke-opacity:1"
       d="m 120.22765,244.41775 h 5.71984 c 0.55258,0 0.99743,0.53541 0.99743,1.20048 v 19.19746 c 0,0.66507 -0.44485,1.20049 -0.99743,1.20049 h -5.71984 c -0.55258,0 -0.99743,-0.53542 -0.99743,-1.20049 v -19.19746 c 0,-0.66507 0.44485,-1.20048 0.99743,-1.20048 z"
       id="path2274"
       inkscape:connector-curvature="0" />
    <path
       inkscape:connector-curvature="0"
       id="path2276"
       d="m 130.54523,244.41775 h 5.71985 c 0.55257,0 0.99743,0.53541 0.99743,1.20048 v 19.19746 c 0,0.66507 -0.44486,1.20049 -0.99743,1.20049 h -5.71985 c -0.55257,0 -0.99743,-0.53542 -0.99743,-1.20049 v -19.19746 c 0,-0.66507 0.44486,-1.20048 0.99743,-1.20048 z"
       style="fill:#808080;fill-opacity:1;stroke:#e7e7e7;stroke-width:0.21885212;stroke-miterlimit:4;stroke-dasharray:none;stroke-opacity:1" />
    <rect
       ry="1.023423"
       rx="0.38976178"
       y="244.41777"
       x="143.72275"
       height="39.667759"
       width="9.9169464"
       id="rect2278"
       style="fill:#5599ff;fill-opacity:1;stroke:#c8c8c8;stroke-width:0.12631592;stroke-miterlimit:4;stroke-dasharray:none;stroke-opacity:1" />
    <path
       style="fill:#808080;fill-opacity:1;stroke:#e7e7e7;stroke-width:0.21885212;stroke-miterlimit:4;stroke-dasharray:none;stroke-opacity:1"
       d="m 140.86282,244.41775 h 5.71984 c 0.55258,0 0.99743,0.53541 0.99743,1.20048 v 19.19746 c 0,0.66507 -0.44485,1.20049 -0.99743,1.20049 h -5.71984 c -0.55258,0 -0.99743,-0.53542 -0.99743,-1.20049 v -19.19746 c 0,-0.66507 0.44485,-1.20048 0.99743,-1.20048 z"
       id="path2280"
       inkscape:connector-curvature="0" />
    <rect
       inkscape:tile-y0="16.9"
       inkscape:tile-x0="5.0000001"
       inkscape:tile-h="20.1"
       inkscape:tile-w="5.0999999"
       inkscape:tile-cy="26.95"
       inkscape:tile-cx="7.55"
       ry="0.99169225"
       rx="0.99169225"
       y="244.41777"
       x="153.63969"
       height="39.66777"
       width="9.9169426"
       id="rect2282"
       style="fill:#f9f9f9;fill-opacity:1;stroke:#e7e7e7;stroke-width:0.19833885;stroke-miterlimit:4;stroke-dasharray:none;stroke-opacity:1" />
    <use
       id="use2284"
       xlink:href="#rect815"
       inkscape:tiled-clone-of="#rect815"
       y="0"
       x="0"
       transform="translate(143.24428,-9.0308488e-6)"
       width="100%"
       height="100%" />
    <use
       style="fill:#0000ff"
       id="use2286"
       transform="translate(153.56187,-9.0308488e-6)"
       xlink:href="#rect815"
       inkscape:tiled-clone-of="#rect815"
       y="0"
       x="0"
       width="100%"
       height="100%" />
    <use
       id="use2288"
       transform="translate(163.87945,-9.0308488e-6)"
       xlink:href="#rect815"
       inkscape:tiled-clone-of="#rect815"
       y="0"
       x="0"
       width="100%"
       height="100%" />
    <use
       id="use2290"
       transform="translate(174.19704,-9.0308488e-6)"
       xlink:href="#rect815"
       inkscape:tiled-clone-of="#rect815"
       y="0"
       x="0"
       width="100%"
       height="100%" />
    <use
       id="use2292"
       transform="translate(184.51463,-9.0308488e-6)"
       xlink:href="#rect815"
       inkscape:tiled-clone-of="#rect815"
       y="0"
       x="0"
       width="100%"
       height="100%" />
    <use
       id="use2294"
       transform="translate(194.83223,-9.0308488e-6)"
       xlink:href="#rect815"
       inkscape:tiled-clone-of="#rect815"
       y="0"
       x="0"
       width="100%"
       height="100%" />
    <use
       id="use2296"
       transform="translate(205.14982,-9.0308488e-6)"
       xlink:href="#rect815"
       inkscape:tiled-clone-of="#rect815"
       y="0"
       x="0"
       width="100%"
       height="100%" />
    <rect
       style="fill:#5599ff;fill-opacity:1;stroke:#c8c8c8;stroke-width:0.12631592;stroke-miterlimit:4;stroke-dasharray:none;stroke-opacity:1"
       id="rect2298"
       width="9.9169464"
       height="39.667759"
       x="164.35793"
       y="244.41777"
       rx="0.38976178"
       ry="1.023423" />
    <path
       inkscape:connector-curvature="0"
       id="path2300"
       d="m 160.72914,244.428 h 5.71985 c 0.55257,0 0.99743,0.53542 0.99743,1.20049 v 19.19745 c 0,0.66507 -0.44486,1.20049 -0.99743,1.20049 h -5.71985 c -0.55257,0 -0.99743,-0.53542 -0.99743,-1.20049 v -19.19745 c 0,-0.66507 0.44486,-1.20049 0.99743,-1.20049 z"
       style="fill:#808080;fill-opacity:1;stroke:#e7e7e7;stroke-width:0.21885212;stroke-miterlimit:4;stroke-dasharray:none;stroke-opacity:1" />
    <path
       style="fill:#808080;fill-opacity:1;stroke:#e7e7e7;stroke-width:0.21885212;stroke-miterlimit:4;stroke-dasharray:none;stroke-opacity:1"
       d="m 171.41494,244.41775 h 5.71984 c 0.55257,0 0.99742,0.53541 0.99742,1.20048 v 19.19746 c 0,0.66507 -0.44485,1.20049 -0.99742,1.20049 h -5.71984 c -0.55257,0 -0.99743,-0.53542 -0.99743,-1.20049 v -19.19746 c 0,-0.66507 0.44486,-1.20048 0.99743,-1.20048 z"
       id="path2302"
       inkscape:connector-curvature="0" />
    <path
       inkscape:connector-curvature="0"
       id="path2304"
       d="m 192.05012,244.41775 h 5.71983 c 0.55257,0 0.99743,0.53541 0.99743,1.20048 v 19.19746 c 0,0.66507 -0.44486,1.20049 -0.99743,1.20049 h -5.71983 c -0.5526,0 -0.99745,-0.53542 -0.99745,-1.20049 v -19.19746 c 0,-0.66507 0.44485,-1.20048 0.99745,-1.20048 z"
       style="fill:#808080;fill-opacity:1;stroke:#e7e7e7;stroke-width:0.21885212;stroke-miterlimit:4;stroke-dasharray:none;stroke-opacity:1" />
    <path
       style="fill:#808080;fill-opacity:1;stroke:#e7e7e7;stroke-width:0.21885212;stroke-miterlimit:4;stroke-dasharray:none;stroke-opacity:1"
       d="m 202.36768,244.41775 h 5.71986 c 0.55257,0 0.99742,0.53541 0.99742,1.20048 v 19.19746 c 0,0.66507 -0.44485,1.20049 -0.99742,1.20049 h -5.71986 c -0.55257,0 -0.99742,-0.53542 -0.99742,-1.20049 v -19.19746 c 0,-0.66507 0.44485,-1.20048 0.99742,-1.20048 z"
       id="path2306"
       inkscape:connector-curvature="0" />
    <path
       inkscape:connector-curvature="0"
       id="path2308"
       d="m 212.68527,244.41775 h 5.71985 c 0.55258,0 0.99743,0.53541 0.99743,1.20048 v 19.19746 c 0,0.66507 -0.44485,1.20049 -0.99743,1.20049 h -5.71985 c -0.55257,0 -0.99743,-0.53542 -0.99743,-1.20049 v -19.19746 c 0,-0.66507 0.44486,-1.20048 0.99743,-1.20048 z"
       style="fill:#808080;fill-opacity:1;stroke:#e7e7e7;stroke-width:0.21885212;stroke-miterlimit:4;stroke-dasharray:none;stroke-opacity:1" />
    <path
       inkscape:connector-curvature="0"
       id="path2310"
       d="m 81.817222,200.79195 v 88.90231"
       style="fill:none;stroke:#000000;stroke-width:0.92785609px;stroke-linecap:butt;stroke-linejoin:miter;stroke-opacity:1" />
    <path
       transform="translate(58.342911,165.09286)"
       inkscape:transform-center-y="0.0037710767"
       inkscape:transform-center-x="-1.0789474"
       d="m 46.029578,42.100221 c 2.48e-4,0.02377 -6.904116,4.033214 -6.924672,4.021114 -0.02056,-0.0121 -0.02165,-8.020954 -8.4e-4,-8.032595 0.02081,-0.01164 6.925265,3.987709 6.925512,4.011481 z"
       inkscape:randomized="0.0119475"
       inkscape:rounded="0.003"
       inkscape:flatsided="true"
       sodipodi:arg2="1.0471976"
       sodipodi:arg1="0"
       sodipodi:r2="2.2999537"
       sodipodi:r1="4.5999079"
       sodipodi:cy="42.093014"
       sodipodi:cx="41.385567"
       sodipodi:sides="3"
       id="path2312"
       style="fill:#808080;fill-opacity:1;stroke:#e7e7e7;stroke-width:0.19833885;stroke-miterlimit:4;stroke-dasharray:none;stroke-opacity:1"
       sodipodi:type="star" />
    <rect
       ry="0.99169225"
       rx="0.99169225"
       y="204.94763"
       x="89.824242"
       height="4.4804888"
       width="7.5460863"
       id="rect2314"
       style="fill:#808080;fill-opacity:1;stroke:#e7e7e7;stroke-width:0.19833885;stroke-miterlimit:4;stroke-dasharray:none;stroke-opacity:1" />
    <path
       sodipodi:type="star"
       style="fill:#808080;fill-opacity:1;stroke:#e7e7e7;stroke-width:0.19833885;stroke-miterlimit:4;stroke-dasharray:none;stroke-opacity:1"
       id="path2316"
       sodipodi:sides="3"
       sodipodi:cx="41.385567"
       sodipodi:cy="42.093014"
       sodipodi:r1="4.5999079"
       sodipodi:r2="2.2999537"
       sodipodi:arg1="0"
       sodipodi:arg2="1.0471976"
       inkscape:flatsided="true"
       inkscape:rounded="0.003"
       inkscape:randomized="0.0119475"
       d="m 46.029578,42.100221 c 2.48e-4,0.02377 -6.904116,4.033214 -6.924672,4.021114 -0.02056,-0.0121 -0.02165,-8.020954 -8.4e-4,-8.032595 0.02081,-0.01164 6.925265,3.987709 6.925512,4.011481 z"
       inkscape:transform-center-x="7.4459584"
       inkscape:transform-center-y="-0.0037700054"
       transform="rotate(180,52.906689,124.64769)" />
    <rect
       style="fill:#808080;fill-opacity:1;stroke:#e7e7e7;stroke-width:0.19833885;stroke-miterlimit:4;stroke-dasharray:none;stroke-opacity:1"
       id="rect2318"
       width="7.5460863"
       height="4.4804888"
       x="66.714355"
       y="204.94763"
       rx="0.99169225"
       ry="0.99169225" />
    <text
       id="text2322"
       y="226.16898"
       x="91.710754"
       style="font-style:normal;font-variant:normal;font-weight:normal;font-stretch:normal;font-size:8.39634418px;line-height:1.25;font-family:sans-serif;-inkscape-font-specification:sans-serif;letter-spacing:0px;word-spacing:0px;fill:#000000;fill-opacity:1;stroke:none;stroke-width:0.52477151"
       xml:space="preserve"><tspan
         style="font-size:8.39634418px;stroke-width:0.52477151"
         y="226.16898"
         x="91.710754"
         id="tspan2320"
         sodipodi:role="line">ノート指定</tspan></text>
    <text
       xml:space="preserve"
       style="font-style:normal;font-variant:normal;font-weight:normal;font-stretch:normal;font-size:8.39634418px;line-height:1.25;font-family:sans-serif;-inkscape-font-specification:sans-serif;letter-spacing:0px;word-spacing:0px;fill:#000000;fill-opacity:1;stroke:none;stroke-width:0.52477151"
       x="15.77826"
       y="225.81528"
       id="text2326"><tspan
         sodipodi:role="line"
         id="tspan2324"
         x="15.77826"
         y="225.81528"
         style="font-size:8.39634418px;stroke-width:0.52477151">ストローク指定</tspan></text>
  </g>
</svg>
